<?xml version="1.0" standalone="no"?>
<!DOCTYPE svg PUBLIC "-//W3C//DTD SVG 20010904//EN"
 "http://www.w3.org/TR/2001/REC-SVG-20010904/DTD/svg10.dtd">
<svg version="1.0" xmlns="http://www.w3.org/2000/svg"
 width="300.000000pt" height="300.000000pt" viewBox="0 0 300.000000 300.000000"
 preserveAspectRatio="xMidYMid meet">
<metadata>
Created by potrace 1.14, written by Peter Selinger 2001-2017
</metadata>
<g transform="translate(0.000000,300.000000) scale(0.100000,-0.100000)"
fill="#000000" stroke="none">
<path d="M940 2939 c0 -5 -4 -8 -8 -5 -4 2 -13 -4 -20 -14 -9 -14 -9 -21 0
-26 6 -4 8 -3 4 4 -3 6 -2 13 3 16 12 8 8 -13 -7 -41 -14 -26 -15 -36 -3 -28
5 3 13 0 17 -6 4 -8 3 -9 -4 -5 -7 4 -12 3 -12 -3 0 -5 -9 -8 -20 -6 -17 3
-19 1 -10 -16 12 -22 22 -26 14 -5 -6 16 19 16 33 1 4 -4 2 -5 -4 -1 -9 5 -13
1 -13 -11 0 -11 -5 -24 -10 -29 -7 -7 -6 -11 4 -11 8 0 13 4 10 9 -3 4 0 8 5
8 6 0 11 -14 11 -31 0 -16 4 -28 8 -25 4 2 14 0 22 -6 12 -8 12 -9 -2 -4 -20
6 -34 -10 -16 -17 10 -4 10 -6 1 -6 -7 -1 -13 -6 -13 -12 0 -5 5 -7 12 -3 7 5
8 3 4 -5 -6 -9 -13 -8 -28 6 -21 18 -21 18 -8 -6 6 -13 7 -21 2 -17 -6 3 -13
2 -17 -4 -3 -5 -12 -10 -18 -10 -7 0 -6 4 3 10 9 6 10 10 3 10 -6 0 -14 -4
-18 -10 -3 -5 -13 -6 -23 -3 -14 6 -15 4 -5 -8 10 -12 8 -15 -8 -16 -13 -1
-17 2 -12 10 5 9 2 8 -9 0 -8 -7 -17 -11 -20 -8 -2 3 -5 -1 -5 -9 0 -9 7 -12
16 -8 9 3 13 2 10 -2 -4 -4 -17 -9 -29 -11 -12 -2 -25 -7 -28 -10 -3 -2 -12 1
-20 8 -13 9 -14 9 -8 0 4 -7 3 -13 -3 -13 -5 0 -12 6 -15 13 -3 6 -4 3 -1 -8
3 -14 -3 -23 -20 -32 -16 -7 -23 -7 -18 -1 3 7 1 8 -5 4 -7 -4 -12 -15 -12
-24 0 -15 -2 -15 -11 -2 -9 12 -10 11 -6 -7 3 -12 2 -22 -2 -21 -22 2 -41 -4
-36 -12 3 -5 -1 -10 -10 -10 -10 0 -13 5 -9 13 4 6 -5 1 -20 -13 -14 -13 -25
-29 -22 -35 2 -7 -7 -10 -25 -9 -26 2 -28 0 -18 -18 6 -11 7 -18 2 -15 -13 8
-55 -12 -48 -23 4 -6 -1 -7 -11 -3 -13 5 -16 3 -11 -9 3 -10 -4 -25 -19 -39
-16 -15 -24 -18 -21 -9 2 8 2 12 0 8 -3 -5 -12 -8 -21 -8 -15 0 -15 -2 -2 -10
13 -8 13 -11 1 -22 -12 -11 -12 -10 -6 2 8 13 7 13 -8 1 -9 -7 -17 -22 -17
-33 0 -13 -5 -18 -14 -15 -10 4 -14 0 -11 -13 5 -24 -14 -37 -26 -19 -5 8 -9
9 -9 4 0 -6 5 -16 11 -22 8 -8 6 -11 -6 -10 -10 1 -20 -5 -22 -13 -4 -13 -3
-13 6 0 7 9 11 10 11 3 0 -7 -12 -18 -27 -25 -14 -7 -28 -22 -29 -32 -1 -10
-9 -23 -16 -27 -10 -7 -10 -9 0 -9 6 0 12 -5 12 -11 0 -5 -4 -7 -10 -4 -5 3
-10 -1 -10 -11 0 -14 -2 -15 -17 -3 -14 12 -15 12 -9 0 5 -8 3 -17 -5 -23 -10
-6 -6 -7 11 -3 21 5 22 4 7 -5 -10 -6 -14 -16 -10 -23 4 -8 1 -7 -9 1 -14 11
-16 10 -11 -6 2 -11 0 -23 -6 -26 -6 -4 -11 -12 -11 -18 0 -6 7 -5 17 3 15 13
15 12 3 -8 -8 -12 -18 -19 -22 -17 -7 5 -12 -10 -9 -28 0 -4 -5 -5 -12 -2 -8
3 -14 -2 -14 -10 0 -8 4 -13 9 -10 15 10 8 -9 -17 -42 -21 -27 -22 -33 -9 -38
13 -5 14 -9 5 -20 -9 -11 -9 -15 1 -18 8 -3 6 -7 -6 -11 -10 -4 -15 -3 -11 3
3 6 1 10 -5 10 -7 0 -9 -7 -6 -16 3 -9 3 -21 -1 -27 -9 -15 -10 -56 -1 -51 4
3 8 0 8 -5 0 -6 -5 -11 -11 -11 -5 0 -7 -5 -3 -12 11 -17 12 -88 2 -81 -6 3
-7 14 -4 26 3 14 2 17 -6 9 -6 -6 -7 -20 -2 -33 4 -13 7 -30 5 -38 -1 -7 2
-10 8 -6 6 3 11 1 11 -4 0 -6 -8 -11 -17 -11 -17 -1 -17 -1 0 -11 17 -10 17
-13 3 -34 -9 -14 -16 -28 -16 -32 0 -4 5 -1 10 7 9 13 10 13 10 0 0 -9 -6 -22
-12 -29 -10 -11 -10 -13 0 -7 7 5 12 1 12 -9 0 -9 -5 -13 -10 -10 -6 3 -10 2
-10 -4 0 -5 10 -13 21 -16 12 -4 17 -10 12 -14 -5 -3 -9 -17 -8 -31 0 -16 -5
-24 -13 -22 -8 1 -11 -2 -7 -7 3 -6 13 -7 23 -4 14 5 15 3 5 -8 -7 -7 -13 -17
-13 -22 0 -4 6 -5 13 -1 9 6 9 4 1 -7 -14 -18 -11 -72 5 -77 6 -2 11 -8 11
-13 0 -6 -6 -7 -13 -2 -6 4 -4 -5 6 -20 9 -14 19 -37 21 -49 3 -13 5 -24 7
-25 3 -5 6 -22 8 -40 1 -15 3 -15 16 3 13 17 14 17 9 1 -4 -11 0 -24 12 -33
11 -9 13 -13 6 -9 -18 9 -15 -6 6 -22 9 -8 12 -12 5 -9 -7 4 -11 -1 -10 -13 0
-11 5 -17 11 -14 5 4 7 -1 3 -10 -3 -9 -1 -19 5 -23 7 -4 8 -3 4 4 -4 7 -2 12
3 12 10 0 15 -14 12 -32 0 -5 7 -8 16 -8 15 0 16 -2 3 -10 -13 -8 -12 -10 3
-10 9 0 17 -5 17 -11 0 -5 -4 -7 -10 -4 -5 3 -7 0 -4 -9 3 -8 12 -12 20 -9 8
3 14 1 14 -5 0 -6 -6 -13 -12 -15 -8 -4 -7 -6 3 -6 9 -1 22 -8 29 -16 7 -8 16
-12 21 -9 5 3 6 -2 3 -11 -9 -22 13 -60 42 -74 13 -6 24 -17 24 -25 0 -10 6
-13 18 -9 15 6 15 5 4 -10 -12 -14 -10 -19 17 -35 24 -15 28 -21 18 -31 -9
-10 -8 -12 7 -9 11 2 20 -3 21 -13 2 -9 -3 -16 -11 -16 -7 0 -10 5 -7 11 3 6
2 7 -3 3 -11 -10 -14 -58 -2 -51 4 3 5 10 2 16 -4 6 -2 8 4 5 5 -4 8 -16 5
-27 -3 -12 0 -20 6 -20 7 0 9 5 6 10 -7 11 8 14 18 3 4 -3 -1 -12 -11 -20 -9
-8 -11 -12 -4 -8 6 3 12 3 13 -2 0 -4 2 -18 3 -30 1 -12 -1 -20 -6 -17 -5 4
-7 12 -5 18 3 7 -1 13 -8 13 -11 0 -12 -5 -2 -21 6 -12 10 -28 9 -36 -2 -10 0
-11 5 -4 14 19 42 13 37 -9 -3 -19 -3 -19 19 -1 18 16 19 16 8 2 -8 -11 -9
-18 -3 -18 6 0 14 -9 17 -21 6 -19 8 -19 19 -3 8 11 18 14 27 9 11 -6 12 -5 2
6 -16 17 -17 33 -1 23 8 -5 9 -2 5 10 -4 10 -3 15 3 11 6 -3 10 -2 10 4 0 6 8
8 18 4 14 -5 15 -3 5 8 -19 20 -16 33 3 14 9 -9 19 -13 22 -10 4 3 0 10 -8 15
-11 7 -9 9 9 7 13 -1 28 -11 34 -24 5 -12 14 -20 18 -17 5 3 9 0 9 -6 0 -6 5
-8 13 -4 8 5 7 2 -2 -9 -12 -15 -12 -17 0 -14 8 2 11 2 6 0 -4 -3 -4 -9 -1
-15 4 -5 -4 -4 -17 2 -20 10 -22 10 -11 -1 18 -19 15 -27 -10 -25 -15 1 -22
-4 -20 -13 1 -7 -2 -19 -8 -25 -5 -7 -6 -17 -2 -21 4 -5 1 -5 -6 -1 -10 6 -10
11 -2 21 8 9 8 15 0 20 -5 3 -11 4 -11 1 -1 -3 -2 -9 -3 -13 -1 -5 -4 -12 -6
-18 -10 -20 -5 -60 8 -57 6 1 12 -2 12 -8 0 -5 -4 -10 -10 -10 -6 0 -1 -9 11
-21 16 -16 23 -18 35 -8 17 14 19 -2 2 -21 -11 -12 -10 -12 5 -1 14 11 17 11
17 0 0 -11 2 -11 10 1 6 10 10 11 10 3 0 -7 7 -13 15 -13 8 0 15 6 15 13 0 8
3 8 9 -2 5 -8 16 -11 26 -8 9 4 13 11 10 17 -4 6 -11 7 -17 4 -7 -4 -8 -2 -4
5 6 9 11 9 22 0 7 -6 12 -15 9 -19 -6 -10 34 -25 42 -16 4 3 -1 6 -10 6 -18 0
-23 15 -8 25 5 3 17 -2 25 -11 9 -8 16 -13 16 -9 0 3 10 1 23 -6 16 -8 14 -4
-8 15 l-30 26 32 -17 c18 -10 33 -25 34 -33 0 -10 2 -11 6 -2 2 6 9 12 14 12
6 0 8 -4 5 -8 -3 -5 1 -9 9 -9 8 0 12 4 9 9 -3 4 0 8 5 8 6 0 11 -4 11 -10 0
-5 7 -10 16 -10 8 0 13 4 10 8 -2 4 5 9 17 9 17 2 19 0 7 -8 -11 -7 -5 -8 22
-6 25 3 35 0 32 -8 -3 -7 2 -15 10 -18 10 -4 13 -1 9 9 -3 7 0 14 6 14 6 0 11
-4 11 -10 0 -5 5 -10 10 -10 7 0 7 7 -1 22 -11 20 -10 20 22 -3 19 -13 28 -16
21 -7 -9 11 -10 18 -2 23 5 3 10 1 10 -6 0 -8 5 -7 17 2 9 8 14 9 11 4 -4 -6
3 -11 15 -12 12 0 17 1 10 4 -7 2 -9 11 -6 19 5 13 7 13 14 2 7 -10 9 -9 9 5
0 15 3 16 23 6 l22 -12 -20 24 c-11 13 -13 18 -4 11 9 -6 19 -9 22 -5 14 13
88 9 98 -7 8 -12 9 -10 5 8 -3 17 -1 21 7 14 18 -13 47 -22 46 -14 -3 19 2 25
11 12 8 -13 13 -13 31 -2 16 10 24 11 33 2 8 -8 6 -10 -9 -5 -15 5 -17 4 -6
-3 16 -11 44 -5 36 8 -4 7 17 7 35 0 3 -1 8 -2 13 -1 4 0 7 -3 7 -9 0 -14 -13
-13 -30 3 -12 10 -12 9 -1 -5 15 -20 71 -25 71 -6 0 6 3 8 7 5 3 -4 -1 -15
-10 -25 -14 -15 -15 -19 -2 -19 8 0 12 4 9 9 -7 11 3 10 28 -3 16 -8 19 -8 13
1 -5 8 -3 11 6 8 8 -3 13 -12 11 -19 -2 -8 5 -6 18 6 12 11 21 15 20 10 -6
-28 0 -37 15 -25 9 7 18 10 22 6 3 -3 2 -6 -4 -6 -5 0 -10 -7 -10 -15 0 -22
12 -18 26 7 11 21 11 21 6 -7 -4 -22 -3 -26 5 -15 5 8 10 11 10 6 0 -5 7 -3
15 4 8 6 19 9 25 5 6 -4 18 -1 27 7 14 11 16 11 9 -1 -7 -10 -4 -12 12 -7 11
4 23 3 26 -2 3 -5 -8 -8 -25 -7 -16 1 -32 -1 -34 -4 -2 -4 20 -7 50 -7 29 1
51 4 48 9 -2 4 -9 4 -15 1 -7 -4 -8 -2 -4 4 7 12 36 5 36 -9 0 -5 5 -9 11 -9
5 0 7 5 4 10 -4 6 6 10 23 10 34 0 49 24 30 48 -9 11 -9 13 -1 9 7 -4 14 1 18
13 3 11 11 20 16 20 6 0 7 -6 4 -12 -4 -7 3 -2 15 12 12 14 18 19 14 11 -5 -9
-3 -12 4 -7 7 4 12 2 12 -6 0 -7 7 -3 15 10 13 18 14 26 4 44 -11 22 -11 22 6
8 17 -14 17 -13 10 10 -4 14 -10 31 -12 37 -3 7 0 13 7 13 6 0 8 -5 4 -12 -4
-7 -3 -8 5 -4 15 9 5 26 -16 26 -18 0 -12 10 9 14 7 2 21 7 31 11 15 6 16 10
5 17 -10 7 -10 11 -1 15 7 2 13 11 13 19 0 11 4 12 18 5 15 -8 18 -6 18 12 -1
15 4 21 14 18 8 -2 20 -4 27 -4 7 0 10 -4 7 -9 -3 -4 -15 -3 -27 3 -21 10 -21
10 -2 -6 11 -8 25 -13 32 -11 7 3 10 -1 6 -9 -3 -8 -10 -12 -17 -8 -6 3 -8 3
-4 -2 4 -4 3 -14 -3 -21 -12 -15 5 -29 22 -18 8 4 7 9 -2 15 -10 6 -10 9 -2 9
6 0 14 -3 16 -7 6 -13 -19 -54 -28 -45 -5 4 -5 1 -1 -6 4 -7 12 -10 17 -7 5 4
12 -1 15 -9 3 -9 11 -13 18 -9 6 3 6 1 -1 -8 -17 -17 -17 -32 -1 -24 7 3 3 -2
-9 -11 -13 -9 -23 -23 -23 -30 0 -8 -6 -14 -12 -14 -7 -1 -2 -10 11 -20 13
-11 20 -20 16 -20 -4 0 -2 -7 5 -15 9 -11 16 -12 25 -5 6 5 14 8 17 5 3 -3 13
4 23 15 10 11 15 20 10 20 -4 0 -14 -8 -21 -17 -12 -17 -13 -16 -11 4 0 12 4
21 7 21 29 -3 34 11 16 42 -7 12 -6 13 5 3 7 -7 17 -13 22 -13 4 0 5 6 1 13
-6 9 -5 9 7 0 10 -8 19 -9 27 -3 9 7 9 7 2 -2 -16 -20 -11 -32 7 -17 11 10 14
10 9 1 -4 -7 -2 -12 4 -12 6 0 9 -4 6 -9 -7 -10 20 -9 30 1 8 9 34 -2 34 -14
0 -6 -8 -4 -17 3 -16 13 -17 12 -4 -4 11 -14 16 -15 29 -5 13 10 14 10 8 1 -4
-7 -2 -13 3 -13 6 0 11 -4 11 -10 0 -5 -8 -6 -17 -3 -15 6 -16 5 -3 -9 8 -9
18 -14 23 -11 4 2 7 -3 7 -12 0 -10 -5 -13 -12 -9 -10 6 -10 4 0 -8 12 -15 15
-15 42 0 18 10 27 23 25 34 -2 10 0 16 6 13 5 -4 9 -1 9 5 0 6 4 8 10 5 5 -3
7 0 4 9 -7 19 40 50 62 42 15 -6 15 -4 3 11 -12 14 -12 16 0 8 10 -6 13 -4 9
6 -4 11 4 14 32 14 21 0 36 -3 33 -7 -2 -5 -9 -5 -15 -2 -7 4 -8 2 -4 -4 4 -6
14 -8 24 -5 14 6 15 4 5 -9 -11 -13 -9 -15 15 -12 15 1 29 3 32 4 3 1 9 2 13
1 5 -1 6 3 2 9 -3 6 -11 7 -17 4 -7 -5 -8 -2 -4 5 5 7 14 10 21 7 18 -7 14 52
-5 64 -13 9 -13 10 0 10 13 0 13 2 0 9 -8 6 -19 7 -25 3 -5 -3 -4 1 2 10 7 8
9 19 5 24 -4 5 4 0 18 -11 14 -11 22 -16 18 -11 -4 5 -2 18 4 30 10 19 10 20
-5 8 -15 -12 -15 -10 -7 20 12 40 12 41 1 33 -5 -3 -13 0 -17 6 -4 8 -3 9 4 5
14 -9 14 11 1 39 -9 20 -9 19 -6 -1 3 -12 -1 -21 -8 -21 -7 0 -12 8 -10 18 2
10 -1 22 -7 25 -7 4 -8 2 -4 -4 4 -7 2 -12 -3 -12 -6 0 -11 5 -11 11 0 8 -4 8
-14 0 -12 -10 -13 -8 -9 8 3 12 1 21 -6 21 -6 0 -11 7 -11 16 0 8 -3 13 -8 10
-4 -2 -8 9 -8 24 -1 25 0 27 13 15 19 -19 29 -19 13 0 -14 17 -4 37 17 33 9
-2 18 4 20 12 4 12 3 12 -5 1 -6 -8 -12 -9 -16 -3 -7 12 22 24 37 15 7 -4 5 2
-3 12 -9 11 -10 16 -2 11 7 -4 23 1 38 13 15 12 23 21 19 21 -5 0 -17 -7 -27
-17 -10 -9 -18 -13 -18 -9 0 4 12 18 26 31 l26 24 -23 -4 c-24 -4 -24 -4 -4
12 16 13 17 15 3 10 -10 -4 -18 -2 -18 3 0 6 -5 10 -11 10 -5 0 -7 -5 -3 -12
4 -6 3 -8 -3 -5 -6 4 -8 19 -6 34 4 22 2 25 -6 13 -9 -13 -12 -13 -23 -1 -10
10 -10 12 0 7 6 -4 12 -3 12 3 0 5 -9 9 -19 8 -16 -1 -18 -4 -9 -22 10 -17 9
-18 -4 -7 -14 11 -16 9 -14 -17 2 -24 -1 -28 -11 -19 -11 8 -12 7 -7 -7 6 -14
4 -16 -7 -10 -11 7 -11 5 1 -10 9 -11 10 -16 3 -11 -9 5 -13 0 -14 -13 -1 -12
-2 -27 -3 -33 0 -7 -12 -15 -25 -16 -17 -3 -21 0 -15 10 6 11 5 11 -8 0 -10
-8 -19 -9 -22 -3 -4 5 -1 13 4 16 7 5 5 12 -7 21 -15 11 -15 13 -2 8 10 -3 20
0 25 7 5 8 3 10 -6 4 -9 -6 -10 -2 -5 15 6 17 4 21 -6 15 -8 -5 -5 2 5 14 15
16 16 20 4 16 -9 -4 -18 0 -21 9 -4 9 -1 13 6 10 8 -3 13 5 14 18 2 16 0 19
-6 10 -7 -11 -10 -10 -14 3 -4 9 -3 13 3 10 5 -3 14 4 20 15 7 13 17 19 26 16
9 -3 12 -1 9 4 -3 6 -2 10 4 10 6 0 7 7 4 17 -4 10 -2 14 4 10 5 -3 10 0 10 8
0 8 -4 15 -9 15 -5 0 -6 5 -3 10 5 8 12 7 23 -2 14 -12 14 -10 3 10 -6 12 -8
22 -4 23 4 1 20 2 34 3 15 0 40 16 61 39 19 20 34 37 31 37 -2 0 4 14 13 31
10 21 11 29 3 23 -9 -5 -10 -2 -6 10 4 10 1 19 -8 22 -8 4 -15 13 -15 21 0 8
-5 11 -11 7 -8 -4 -8 0 0 15 10 18 9 20 -5 14 -11 -4 -15 -2 -11 4 4 6 1 13
-5 16 -10 3 -10 8 1 18 12 12 13 12 6 0 -6 -10 -4 -12 4 -7 9 6 8 13 -5 27
-15 16 -15 19 -2 14 13 -5 15 1 11 37 -5 38 -4 41 11 29 14 -12 16 -12 10 3
-3 9 -9 16 -13 16 -4 0 -8 7 -8 15 0 13 4 12 21 -2 19 -16 19 -16 7 -1 -14 19
-6 42 12 31 7 -3 3 3 -7 15 -14 17 -16 22 -5 22 11 0 11 2 -1 10 -13 9 -13 10
0 10 13 0 13 2 1 9 -18 11 -6 45 11 35 9 -6 9 -3 -1 9 -13 16 -36 14 -26 -3 3
-5 1 -11 -4 -14 -10 -6 -10 12 0 29 4 6 5 18 4 27 -2 11 2 15 13 12 10 -3 6 2
-8 10 l-25 16 29 -5 c27 -4 27 -3 12 14 -11 12 -13 21 -6 24 6 3 5 4 -2 2 -7
-1 -12 -8 -10 -14 1 -6 -3 -11 -9 -11 -6 0 -9 6 -6 14 3 7 0 19 -6 25 -9 9 -8
11 5 6 14 -6 16 -2 12 21 -3 15 -13 34 -22 41 -16 12 -15 13 2 6 16 -5 17 -3
9 12 -6 10 -8 26 -6 36 3 11 0 19 -6 19 -6 0 -11 4 -11 10 0 5 7 7 16 3 14 -5
15 -3 5 15 -11 21 -10 21 15 12 24 -9 25 -9 14 5 -10 13 -9 15 9 15 18 0 21 4
16 23 -3 12 -3 17 2 12 10 -13 28 -13 40 -1 5 5 3 6 -4 2 -9 -5 -13 1 -13 18
0 29 -9 33 -29 14 -8 -8 -11 -8 -8 -2 4 7 -9 24 -29 39 -19 15 -33 30 -30 33
4 3 12 -2 19 -11 9 -12 16 -14 27 -6 13 9 13 10 0 6 -8 -2 -20 3 -26 11 -14
19 -46 25 -55 10 -4 -6 -10 -2 -14 11 -3 11 -11 21 -16 21 -6 0 -8 -4 -5 -8 3
-5 -1 -9 -9 -9 -10 0 -11 6 -5 23 8 19 6 22 -8 17 -15 -6 -16 -5 -2 12 11 14
12 19 2 22 -6 3 -9 10 -5 16 4 7 -2 5 -12 -3 -17 -14 -18 -14 -7 7 13 23 -1
43 -14 22 -5 -8 -3 -9 6 -4 9 5 11 4 6 -4 -12 -18 -27 -2 -22 24 3 14 0 28 -6
31 -6 4 -8 2 -4 -4 3 -6 3 -13 -2 -16 -5 -3 -9 0 -9 7 -1 22 -8 42 -18 49 -5
4 -10 11 -10 15 -1 13 -24 49 -25 38 0 -6 5 -16 12 -23 9 -9 9 -12 0 -12 -7 0
-15 13 -18 30 -4 16 -13 35 -20 41 -8 6 -11 16 -7 23 4 6 -2 4 -12 -4 -11 -9
-16 -10 -11 -2 4 6 2 12 -3 12 -6 0 -11 6 -11 14 0 7 -8 20 -17 27 -16 12 -17
12 -6 -2 10 -13 10 -16 -2 -16 -7 0 -14 3 -13 6 2 20 -4 30 -22 36 -11 4 -18
11 -15 16 4 5 -1 19 -11 31 -10 15 -14 17 -11 6 4 -10 1 -20 -5 -24 -7 -4 -8
-3 -4 5 4 6 0 14 -8 17 -9 3 -13 10 -10 15 5 8 -10 13 -20 7 -7 -5 -56 45 -56
56 0 5 6 2 13 -9 11 -14 16 -15 22 -5 5 8 4 11 -2 7 -6 -4 -13 0 -17 8 -3 9
-12 12 -22 8 -12 -5 -15 -3 -9 6 6 10 3 11 -15 1 -12 -7 -20 -8 -17 -2 4 5 -1
18 -9 28 -9 10 -13 12 -9 4 4 -10 2 -9 -8 3 -8 9 -20 17 -26 17 -7 0 -9 5 -5
13 5 7 0 6 -11 -3 -17 -14 -17 -13 -11 10 4 15 4 20 -1 13 -12 -17 -48 8 -56
37 -5 18 -3 20 11 8 15 -11 14 -10 -1 8 -9 11 -14 24 -10 29 5 4 2 5 -4 1 -7
-4 -13 -3 -13 2 0 6 7 12 15 16 8 3 15 11 15 18 0 8 -3 9 -8 3 -4 -5 -14 -11
-22 -13 -9 -1 -6 6 9 18 21 18 21 20 5 21 -15 0 -16 2 -4 7 8 4 15 19 16 34 0
15 -4 24 -10 21 -6 -4 -7 1 -2 13 4 10 4 15 0 11 -4 -4 -12 -3 -18 2 -15 11
-46 22 -46 15 0 -2 10 -9 23 -14 22 -10 22 -10 -3 -7 -35 3 -56 32 -38 54 7 9
8 14 2 10 -7 -4 -14 0 -17 8 -4 10 -1 12 11 9 13 -5 14 -4 3 4 -8 6 -10 15 -6
23 6 11 5 11 -5 2 -11 -10 -16 -9 -27 5 -7 9 -12 12 -11 7 2 -6 -7 -23 -19
-39 -13 -16 -23 -25 -23 -21 0 5 7 16 16 26 12 14 13 18 2 25 -7 4 -10 4 -6
-1 10 -10 -11 -37 -23 -29 -5 3 -6 -2 -3 -11 4 -8 1 -21 -5 -29 -6 -7 -7 -17
-3 -21 4 -5 1 -5 -6 -1 -9 6 -9 12 -1 29 11 21 10 21 -11 -2 -19 -19 -20 -25
-9 -32 8 -5 9 -9 4 -9 -6 0 -17 6 -24 13 -10 10 -11 9 -6 -5 4 -10 12 -18 18
-18 6 0 8 -3 5 -6 -4 -3 -17 0 -30 7 -21 11 -22 11 -10 -4 12 -14 11 -16 -7
-12 -14 2 -21 -1 -21 -11 0 -10 -5 -12 -12 -8 -10 6 -10 5 -1 -7 10 -13 10
-16 -5 -16 -9 0 -23 5 -31 11 -12 9 -13 8 -8 -7 5 -13 3 -16 -6 -10 -23 14
-42 12 -56 -5 -12 -16 -13 -15 -7 3 5 17 1 20 -28 20 -19 0 -32 -3 -30 -7 3
-4 0 -8 -5 -8 -6 0 -11 6 -11 13 0 8 -4 7 -10 -3 -8 -12 -10 -12 -10 5 -1 18
-2 18 -10 3 -6 -10 -18 -14 -31 -11 -16 5 -18 8 -7 15 9 7 8 8 -5 4 -10 -3
-25 -6 -33 -6 -9 0 -12 -5 -8 -12 4 -7 3 -8 -4 -4 -6 4 -8 14 -5 23 4 11 3 14
-5 9 -7 -4 -12 -2 -12 6 0 8 -3 9 -8 3 -4 -6 -17 -10 -29 -9 -13 1 -23 -2 -23
-7 0 -4 14 -6 30 -4 17 2 30 0 30 -5 0 -5 -17 -7 -37 -5 -21 1 -43 -1 -48 -5
-6 -5 -17 -5 -25 0 -13 9 -13 10 0 11 8 1 18 1 22 1 3 -1 8 4 11 11 3 7 -5 12
-18 12 -13 0 -21 -3 -19 -6 4 -6 -26 -22 -35 -19 -2 1 -8 -4 -12 -12 -7 -11
-9 -11 -9 1 0 7 -6 11 -14 8 -7 -3 -19 0 -26 6 -10 10 -12 8 -6 -7 6 -16 4
-17 -10 -5 -21 17 -42 20 -51 7 -3 -7 -1 -8 5 -4 7 4 12 3 12 -2 0 -5 -18 -9
-40 -8 -22 0 -40 5 -40 10 0 5 -7 3 -15 -4 -9 -7 -18 -10 -22 -6 -3 3 0 6 7 6
8 0 5 7 -8 18 -16 14 -18 22 -10 30 8 8 5 9 -11 5 -13 -3 -21 -1 -21 6 0 7 -5
9 -12 5 -8 -5 -7 0 2 11 9 11 10 16 3 11 -12 -6 -18 5 -14 27 0 4 -5 6 -11 5
-7 -2 -12 4 -10 12 3 12 1 13 -9 3 -7 -7 -18 -13 -23 -13 -6 0 -4 5 4 10 10 6
11 10 3 10 -7 0 -13 5 -13 11 0 5 5 7 12 3 7 -4 8 -3 4 4 -4 7 -14 12 -22 12
-7 0 -19 9 -26 20 -13 21 -58 28 -58 9z m134 -97 c3 -5 -1 -9 -9 -9 -8 0 -15
4 -15 9 0 4 4 8 9 8 6 0 12 -4 15 -8z m730 -128 c3 -8 2 -12 -4 -9 -6 3 -10
10 -10 16 0 14 7 11 14 -7z m-1234 -248 c0 -2 -8 -10 -17 -17 -16 -13 -17 -12
-4 4 13 16 21 21 21 13z m-325 -346 c-3 -5 -11 -10 -16 -10 -6 0 -7 5 -4 10 3
6 11 10 16 10 6 0 7 -4 4 -10z m-145 -311 c-7 -11 -14 -18 -17 -15 -3 3 0 12
7 21 18 21 23 19 10 -6z m2575 -65 c9 -15 12 -23 6 -20 -6 4 -11 3 -11 -2 0
-5 14 -15 30 -22 17 -7 30 -18 30 -24 0 -6 5 -4 11 4 9 13 10 13 6 -1 -3 -9 0
-22 6 -29 9 -10 9 -11 0 -6 -19 11 -16 -5 5 -21 14 -12 14 -14 1 -10 -9 3 -16
-1 -16 -9 0 -7 4 -11 9 -8 4 3 8 0 8 -5 0 -6 -5 -11 -11 -11 -5 0 -7 -5 -4
-10 4 -6 12 -8 18 -4 7 3 1 -4 -12 -15 -13 -12 -18 -21 -12 -21 7 0 9 -5 6
-10 -4 -7 -13 -7 -25 0 -16 9 -19 8 -13 -7 5 -16 3 -15 -14 2 -21 21 -28 52
-9 36 8 -7 10 4 7 35 -2 32 1 44 10 44 9 1 8 4 -4 11 -9 6 -14 15 -11 21 4 7
2 8 -5 4 -9 -6 -9 -11 0 -22 7 -8 7 -14 1 -14 -5 0 -12 7 -15 15 -4 8 -15 12
-26 10 -11 -2 -25 3 -31 11 -7 7 -16 11 -21 8 -5 -3 -9 -1 -9 4 0 6 7 13 16
16 10 4 13 2 8 -6 -4 -7 -3 -8 4 -4 8 5 8 15 2 32 -9 23 -8 24 10 14 11 -6 18
-15 15 -20 -3 -5 -1 -11 4 -14 10 -7 9 13 -2 31 -4 6 -3 14 3 18 5 3 10 1 10
-4 0 -6 5 -11 10 -11 7 0 7 6 0 20 -15 29 -5 25 15 -6z m-2604 -37 c-6 -8 -7
-18 -3 -22 4 -5 1 -5 -6 -1 -10 6 -10 11 -1 22 6 8 14 14 16 14 3 0 0 -6 -6
-13z m2653 -258 c20 3 25 -1 23 -19 -1 -11 -7 -22 -15 -25 -7 -3 -10 -10 -6
-16 5 -8 1 -8 -13 0 -11 6 -24 7 -28 3 -5 -4 -5 -1 -1 6 4 7 2 20 -6 29 -11
14 -11 16 1 8 11 -6 13 -4 8 9 -4 10 -3 15 3 11 6 -3 10 0 10 7 0 10 2 10 9 0
4 -8 11 -13 15 -13z m141 -29 c3 -5 1 -10 -4 -10 -6 0 -11 5 -11 10 0 6 2 10
4 10 3 0 8 -4 11 -10z m6 -63 c-13 -13 -26 -3 -16 12 3 6 11 8 17 5 6 -4 6
-10 -1 -17z m-465 -13 c-5 -13 -2 -15 13 -11 12 3 27 -3 37 -14 9 -10 24 -19
33 -19 11 -1 8 -6 -9 -16 -14 -8 -17 -13 -7 -10 21 7 22 -3 0 -34 l-17 -25 24
20 23 20 -12 -22 c-6 -13 -16 -23 -21 -23 -6 0 -10 -4 -10 -10 0 -10 20 -10
30 0 3 3 15 -5 27 -17 12 -13 18 -23 13 -23 -5 0 -7 -9 -5 -21 3 -15 1 -18 -8
-11 -7 6 -14 10 -17 10 -16 -2 -50 15 -50 25 0 7 -4 6 -11 -3 -9 -13 -10 -13
-6 0 2 8 10 14 16 12 6 -1 11 2 11 8 0 6 -5 10 -11 10 -5 0 -8 4 -5 9 4 5 2
11 -3 13 -5 1 -11 10 -13 18 -2 8 -7 19 -13 23 -5 5 1 5 15 2 16 -4 20 -3 12
3 -7 5 -10 17 -7 28 6 18 6 18 -5 1 -11 -17 -13 -17 -30 -2 -18 17 -19 26 -5
58 9 22 19 23 11 1z m-2316 -170 c0 -8 -19 -13 -24 -6 -3 5 1 9 9 9 8 0 15 -2
15 -3z m2473 -9 c-3 -9 -8 -14 -10 -11 -3 3 -2 9 2 15 9 16 15 13 8 -4z m97 2
c0 -2 -10 -12 -22 -23 l-23 -19 19 23 c18 21 26 27 26 19z m40 -3 c0 -8 -19
-13 -24 -6 -3 5 1 9 9 9 8 0 15 -2 15 -3z m41 -11 c13 -17 13 -17 -6 -3 -11 8
-22 16 -24 17 -2 2 0 3 6 3 6 0 17 -8 24 -17z m-2640 -22 c-6 -10 -7 -22 -3
-26 4 -5 1 -5 -6 -1 -9 5 -9 12 -2 27 6 10 13 19 16 19 2 0 0 -8 -5 -19z
m2634 8 c5 -7 12 -6 21 2 8 6 15 8 15 3 1 -5 3 -19 4 -32 1 -12 6 -26 10 -30
5 -4 5 1 2 11 -4 11 -1 17 8 17 8 0 14 -3 14 -7 -1 -5 -1 -15 0 -23 1 -13 2
-13 11 0 8 13 10 12 10 -2 0 -10 8 -19 18 -19 16 -1 16 -2 -1 -6 -9 -2 -15 -9
-11 -14 3 -5 10 -6 16 -3 7 4 8 2 4 -5 -4 -6 -11 -9 -16 -6 -5 3 -11 -4 -15
-15 -4 -11 -11 -17 -17 -14 -6 4 -8 2 -4 -4 3 -6 2 -13 -4 -17 -5 -3 -10 -2
-10 3 0 5 -7 9 -15 9 -13 0 -13 -3 2 -19 9 -10 13 -18 9 -18 -12 0 -36 28 -36
42 -1 8 -6 6 -15 -6 -8 -11 -15 -17 -15 -14 0 4 -3 15 -6 25 -5 15 -4 15 5 3
9 -13 11 -13 11 1 0 8 -5 20 -11 26 -9 9 -6 10 12 6 24 -5 24 -5 4 11 -11 10
-15 15 -8 12 13 -7 12 19 -2 31 -4 4 -5 3 -2 -3 4 -7 -2 -14 -14 -17 -17 -5
-18 -3 -7 11 8 10 8 13 1 9 -6 -4 -18 -1 -26 7 -8 8 -17 13 -19 10 -3 -2 -4 6
-3 18 3 28 -2 24 40 26 19 1 37 -3 40 -9z m126 -136 c-26 -45 -48 -66 -56 -53
-6 9 -4 11 5 5 9 -6 12 -4 8 6 -3 8 0 23 8 34 10 14 14 15 14 4 1 -10 3 -9 11
4 5 9 12 17 15 17 3 0 0 -8 -5 -17z m-2540 -310 c13 -16 12 -17 -3 -4 -17 13
-22 21 -14 21 2 0 10 -8 17 -17z m2509 7 c0 -5 -5 -10 -11 -10 -5 0 -7 5 -4
10 3 6 8 10 11 10 2 0 4 -4 4 -10z m-229 -23 c-10 -9 -11 -8 -5 6 3 10 9 15
12 12 3 -3 0 -11 -7 -18z m12 -11 c12 3 19 3 15 -1 -4 -4 -3 -17 3 -28 8 -14
8 -18 0 -13 -15 10 -14 -7 2 -24 6 -8 2 -6 -10 4 -21 17 -21 17 -16 -2 2 -11
-1 -23 -8 -28 -9 -5 -10 -2 -5 11 5 15 4 16 -9 5 -8 -7 -12 -16 -9 -21 3 -5
-2 -6 -11 -3 -11 5 -13 10 -5 19 8 10 7 15 -2 21 -7 4 -10 4 -6 -1 9 -10 -29
-65 -45 -65 -7 0 -4 5 6 11 9 5 17 17 17 25 0 14 -2 14 -16 0 -8 -9 -18 -16
-21 -16 -4 0 -3 3 0 7 4 3 2 12 -3 18 -7 9 -5 17 7 26 16 13 17 12 5 -3 -8 -9
-9 -19 -4 -22 10 -6 27 21 24 37 -1 4 3 7 9 7 5 0 7 6 3 13 -5 7 0 6 11 -3 10
-8 16 -10 12 -4 -4 7 0 14 8 18 9 3 12 12 9 23 -5 17 -5 17 6 0 8 -12 18 -16
33 -11z m-2199 -73 c4 -11 1 -11 -14 -3 -24 13 -25 17 -5 17 8 0 16 -6 19 -14z
m2076 -47 c0 -2 -7 -7 -16 -10 -8 -3 -12 -2 -9 4 6 10 25 14 25 6z m-129 -119
c-10 -9 -11 -8 -5 6 3 10 9 15 12 12 3 -3 0 -11 -7 -18z m-27 -5 c3 -5 -1 -9
-9 -9 -8 0 -12 4 -9 9 3 4 7 8 9 8 2 0 6 -4 9 -8z m-141 -87 c4 -8 3 -16 -1
-19 -4 -3 -9 4 -9 15 -2 23 3 25 10 4z m656 -133 c7 -13 6 -19 -2 -19 -7 0
-13 9 -13 19 0 23 3 23 15 0z m-689 -16 c0 -3 -4 -8 -10 -11 -5 -3 -10 -1 -10
4 0 6 5 11 10 11 6 0 10 -2 10 -4z m167 -21 c0 -8 -4 -15 -9 -15 -10 0 -11 14
-1 23 9 10 10 9 10 -8z m-1653 -11 c3 -8 2 -12 -4 -9 -6 3 -10 10 -10 16 0 14
7 11 14 -7z m1056 -34 c0 -6 -9 -2 -20 7 -11 10 -20 19 -20 21 0 1 9 -2 20 -8
11 -6 20 -15 20 -20z m620 4 c0 -8 -5 -12 -10 -9 -6 4 -8 11 -5 16 9 14 15 11
15 -7z"/>
<path d="M2616 1668 c2 -4 14 -5 26 -3 32 7 32 13 -1 11 -16 0 -27 -4 -25 -8z"/>
<path d="M2722 1564 c10 -10 20 -16 22 -13 3 3 -5 11 -17 18 -21 13 -21 12 -5
-5z"/>
<path d="M2700 1445 c0 -2 6 -8 13 -14 10 -8 14 -7 14 2 0 8 -6 14 -14 14 -7
0 -13 -1 -13 -2z"/>
<path d="M2430 1326 c0 -11 30 -39 36 -34 2 3 -5 13 -16 23 -11 10 -20 15 -20
11z"/>
<path d="M2390 1306 c0 -2 6 -9 13 -15 10 -8 14 -7 14 4 0 8 -6 15 -14 15 -7
0 -13 -2 -13 -4z"/>
<path d="M2477 1179 c-9 -6 -15 -15 -12 -20 4 -5 11 -7 16 -4 5 4 9 2 9 -3 0
-5 6 -9 14 -9 15 0 15 22 0 36 -5 6 -16 6 -27 0z m28 -9 c3 -5 1 -10 -4 -10
-6 0 -11 5 -11 10 0 6 2 10 4 10 3 0 8 -4 11 -10z"/>
<path d="M2577 635 c-4 -8 -1 -17 6 -21 7 -4 9 -4 5 1 -4 4 -3 14 3 22 7 8 8
13 1 13 -5 0 -12 -7 -15 -15z"/>
<path d="M1005 2941 c-6 -11 13 -26 22 -17 4 3 1 6 -6 6 -7 0 -9 5 -6 10 3 6
4 10 1 10 -3 0 -7 -4 -11 -9z"/>
<path d="M1385 2769 c-4 -6 -5 -12 -2 -15 2 -3 7 2 10 11 7 17 1 20 -8 4z"/>
<path d="M745 2590 c-3 -6 1 -7 9 -4 18 7 21 14 7 14 -6 0 -13 -4 -16 -10z"/>
<path d="M2187 2579 c7 -7 15 -10 18 -7 3 3 -2 9 -12 12 -14 6 -15 5 -6 -5z"/>
<path d="M2386 2428 c3 -5 10 -6 15 -3 13 9 11 12 -6 12 -8 0 -12 -4 -9 -9z"/>
<path d="M396 2338 c3 -5 10 -6 15 -3 13 9 11 12 -6 12 -8 0 -12 -4 -9 -9z"/>
<path d="M2880 1896 c0 -2 7 -9 15 -16 9 -7 15 -8 15 -2 0 5 -7 12 -15 16 -8
3 -15 4 -15 2z"/>
<path d="M20 1616 c0 -2 7 -7 16 -10 8 -3 12 -2 9 4 -6 10 -25 14 -25 6z"/>
<path d="M19 1533 c0 -5 -2 -16 -4 -26 -2 -11 -1 -16 3 -13 8 8 14 46 7 46 -3
0 -5 -3 -6 -7z"/>
<path d="M19 1468 c-6 -21 -5 -37 2 -32 5 3 7 9 4 14 -3 5 3 11 12 13 17 4 17
5 1 6 -10 0 -18 0 -19 -1z"/>
<path d="M35 1311 c-3 -5 -2 -12 3 -15 5 -3 9 1 9 9 0 17 -3 19 -12 6z"/>
<path d="M260 740 c0 -5 5 -10 11 -10 5 0 7 5 4 10 -3 6 -8 10 -11 10 -2 0 -4
-4 -4 -10z"/>
<path d="M335 640 c-3 -5 -1 -10 4 -10 6 0 11 5 11 10 0 6 -2 10 -4 10 -3 0
-8 -4 -11 -10z"/>
<path d="M660 385 c0 -8 4 -15 10 -15 5 0 7 7 4 15 -4 8 -8 15 -10 15 -2 0 -4
-7 -4 -15z"/>
<path d="M2694 154 c-18 -14 -18 -14 6 -3 31 14 36 19 24 19 -6 0 -19 -7 -30
-16z"/>
<path d="M1310 140 c0 -5 5 -10 11 -10 5 0 7 5 4 10 -3 6 -8 10 -11 10 -2 0
-4 -4 -4 -10z"/>
<path d="M1355 139 c-4 -6 -5 -12 -2 -15 2 -3 7 2 10 11 7 17 1 20 -8 4z"/>
<path d="M1060 80 c0 -5 5 -10 11 -10 5 0 7 5 4 10 -3 6 -8 10 -11 10 -2 0 -4
-4 -4 -10z"/>
</g>
</svg>
